<svg width="451" height="97" viewBox="0 0 451 97" fill="none" xmlns="http://www.w3.org/2000/svg">
<path d="M23.2534 41.8134L1.60006 43.4134C1.2445 37.6534 1.06672 34.5956 1.06672 34.24C0.995611 31.7511 0.711167 22.2934 0.213389 5.86669C0.0711664 1.95558 1.8845 0.0355763 5.65339 0.106687C6.86228 0.177798 10.4534 0.355577 16.4267 0.640025C22.4001 0.924468 26.0978 1.10224 27.5201 1.17336C28.7289 1.17336 33.4223 1.20891 41.6001 1.28002C49.8489 1.28002 54.8623 1.31558 56.6401 1.38669C60.0534 1.4578 64.9245 1.99113 71.2534 2.98669C72.8889 3.20002 73.9556 3.62669 74.4534 4.26669C75.0223 4.90669 75.2712 6.11558 75.2001 7.89335C75.2001 8.32002 74.9512 11.7689 74.4534 18.24C74.2401 28.9067 74.1334 34.5245 74.1334 35.0934C74.1334 35.3778 73.8845 37.9734 73.3867 42.88C64.2845 43.5911 59.3423 43.9822 58.5601 44.0534C56.6401 44.1956 55.3956 44.5511 54.8267 45.12C54.3289 45.6889 54.1867 46.9334 54.4001 48.8534C55.3956 55.6089 55.3956 65.0311 54.4001 77.12C54.0445 81.4578 53.8312 84.48 53.7601 86.1867V92.3734L21.8667 96.1067C22.3645 77.6178 22.8267 59.52 23.2534 41.8134ZM133.575 2.13336C139.62 1.56447 142.82 1.28002 143.175 1.28002C150.998 0.64002 157.433 3.23558 162.482 9.06669C165.184 12.1245 166.927 15.9289 167.709 20.48C170.055 33.6356 169.878 45.0489 167.175 54.72C164.9 62.6845 162.66 70.72 160.455 78.8267C157.895 88.0711 151.389 93.12 140.935 93.9734C139.513 94.0445 137.451 94.2934 134.749 94.72C132.047 95.1467 130.055 95.36 128.775 95.36C127.567 95.4311 125.504 95.36 122.589 95.1467C117.042 94.2934 110.393 92.1245 102.642 88.64C99.7977 87.4311 97.7355 84.2667 96.4555 79.1467C93.611 68.48 92.9355 57.8489 94.4288 47.2534C95.9932 35.9467 100.864 24.3556 109.042 12.48C109.54 11.84 110.215 11.1645 111.069 10.4534C111.922 9.67113 112.633 9.06669 113.202 8.64002C113.771 8.21336 114.695 7.60891 115.975 6.82669C117.255 5.97335 118.002 5.47558 118.215 5.33335C122.055 2.4178 127.175 1.35113 133.575 2.13336ZM127.389 50.24C127.887 54.72 128.349 57.4934 128.775 58.56C128.989 59.1289 129.487 59.6978 130.269 60.2667C131.122 60.8356 131.869 61.12 132.509 61.12C133.149 61.12 133.824 60.8356 134.535 60.2667C135.318 59.6978 135.851 59.1289 136.135 58.56C137.06 56.8534 137.487 54.8978 137.415 52.6934C137.415 51.6978 137.273 49.1022 136.989 44.9067C136.704 40.64 136.527 38.1156 136.455 37.3334C136.384 36.4089 136.029 35.7334 135.389 35.3067C134.749 34.8089 134.038 34.8445 133.255 35.4134C131.62 36.1956 130.518 37.0845 129.949 38.08C129.38 39.0045 128.918 40.5334 128.562 42.6667C127.993 46.2222 127.602 48.7467 127.389 50.24ZM236.577 26.3467V73.92L246.603 73.4934V76.2667C246.888 83.52 247.066 87.8222 247.137 89.1734C247.208 90.24 247.03 90.9511 246.603 91.3067C246.177 91.7334 245.43 91.9822 244.363 92.0534C227.581 92.9067 213.395 93.7956 201.803 94.72C201.092 94.7911 199.243 95.1111 196.257 95.68C194.55 95.9645 193.59 95.36 193.377 93.8667C192.523 88.8889 192.026 84.1245 191.883 79.5734C191.812 78.08 192.026 77.0489 192.523 76.48C193.092 75.9111 194.088 75.5556 195.51 75.4134C196.079 75.4134 198.923 75.2356 204.043 74.88C204.47 61.6534 205.003 46.4 205.643 29.12H191.883C190.888 18.7378 190.354 13.0845 190.283 12.16C190.07 10.3111 189.963 8.00002 189.963 5.22669C189.892 3.09336 190.994 1.95558 193.27 1.81336C207.137 1.17336 215.955 0.853357 219.723 0.853357C223.137 0.853357 230.39 1.17336 241.483 1.81336C241.768 1.88447 242.123 2.0978 242.55 2.45336C243.048 2.80891 243.297 3.12891 243.297 3.41336C244.079 9.95558 244.648 16 245.003 21.5467C245.217 23.4667 244.399 24.6045 242.55 24.96C242.337 24.96 240.346 25.4222 236.577 26.3467ZM317.021 91.3067C316.452 91.3067 315.599 91.2711 314.461 91.2C313.394 91.1289 312.648 91.0934 312.221 91.0934C311.865 91.0934 310.87 91.1289 309.234 91.2C308.097 91.2 307.243 90.9511 306.674 90.4534C306.177 90.0267 305.75 89.28 305.394 88.2134C305.252 87.7156 303.581 82.9511 300.381 73.92C297.181 64.8889 295.51 60.1956 295.368 59.84L294.301 59.7334C294.159 60.6578 293.661 66.4889 292.808 77.2267C292.025 87.8934 291.563 93.6889 291.421 94.6134H267.421C267.421 93.5467 267.279 90.3822 266.994 85.12C266.781 79.8578 266.674 76.6222 266.674 75.4134C266.745 73.6356 266.959 68.9067 267.314 61.2267C267.741 53.4756 267.99 48.7111 268.061 46.9334C268.132 44.9422 268.097 39.5022 267.954 30.6134C267.883 21.7245 267.848 16.8889 267.848 16.1067C267.777 15.7511 267.954 12.2311 268.381 5.54669C272.434 4.05336 276.879 3.30669 281.714 3.30669C282.568 3.30669 284.808 3.34225 288.434 3.41336C292.132 3.48447 294.408 3.52002 295.261 3.52002C296.114 3.52002 297.074 4.16002 298.141 5.44002C302.479 10.9867 308.025 22.7911 314.781 40.8534C314.852 40.9956 315.741 42.9867 317.448 46.8267C318.23 42.8445 318.941 35.3778 319.581 24.4267C320.292 13.4045 321.039 5.97336 321.821 2.13336C335.119 2.13336 342.479 2.0978 343.901 2.02669C345.323 2.02669 346.319 2.4178 346.888 3.20003C347.457 3.98224 347.812 5.15557 347.954 6.72002C348.168 9.99113 348.31 15.7511 348.381 24C348.381 27.7689 348.097 34.24 347.528 43.4134C347.03 52.5867 346.745 57.3867 346.674 57.8134C346.248 68.3378 346.212 77.44 346.568 85.12C346.639 86.1156 346.461 86.8267 346.034 87.2534C345.679 87.7511 345.039 88.1778 344.114 88.5334C338.141 90.5956 332.239 91.5556 326.408 91.4134C323.705 91.4134 320.577 91.3778 317.021 91.3067ZM450.6 15.04C445.266 24.5689 441.711 30.7556 439.933 33.6C438.937 35.0222 437.337 35.8045 435.133 35.9467C433 36.0889 431.293 35.52 430.013 34.24C428.164 32.4622 425.106 31.0756 420.84 30.08C415.791 28.9422 411.809 28.8356 408.893 29.76C404.129 31.2534 400.253 33.2089 397.266 35.6267C394.351 37.9734 392.502 41.3156 391.72 45.6534C390.866 50.56 391.115 54.3289 392.466 56.96C394.386 60.4445 397.48 63.3245 401.746 65.6C405.231 67.4489 409.853 67.6622 415.613 66.24C417.889 65.6711 418.991 64.2489 418.92 61.9734C418.849 59.9111 419.062 57.3511 419.56 54.2934C419.631 53.9378 419.88 53.5467 420.306 53.12C420.733 52.6934 421.124 52.48 421.48 52.48C427.311 52.5511 432.893 52.7289 438.226 53.0134C438.653 53.0134 439.044 53.0489 439.4 53.12C439.755 53.1911 440.075 53.3689 440.36 53.6534C440.644 53.8667 440.857 54.08 441 54.2934C441.213 54.4356 441.426 54.72 441.64 55.1467C441.924 55.5734 442.102 55.8934 442.173 56.1067C442.244 56.2489 442.386 56.5689 442.6 57.0667C442.813 57.5645 442.955 57.8845 443.026 58.0267C443.809 59.8045 444.129 61.6534 443.986 63.5734C443.417 70.8978 442.706 77.44 441.853 83.2C441.569 85.0489 440.715 87.5734 439.293 90.7734C439.08 91.2 438.582 91.5911 437.8 91.9467C437.017 92.3022 435.88 92.6222 434.386 92.9067C432.964 93.2622 432.182 93.4756 432.04 93.5467C430.76 93.9022 429.302 94.08 427.666 94.08C417.355 93.6534 408.395 92.9778 400.786 92.0534C399.72 91.9111 398.582 91.5911 397.373 91.0934C396.164 90.6667 394.849 90.0978 393.426 89.3867C392.004 88.6756 391.009 88.2134 390.44 88C390.226 87.9289 389.551 87.6089 388.413 87.04C387.346 86.5422 386.671 86.2578 386.386 86.1867C379.417 83.1289 373.657 77.8667 369.106 70.4C368.466 69.3334 367.933 67.0934 367.506 63.68C366.937 58.9156 366.511 54.4 366.226 50.1334C366.297 49.4934 366.262 48.8889 366.12 48.32C366.049 47.7511 366.12 47.1467 366.333 46.5067C366.475 45.8667 366.546 45.3334 366.546 44.9067C366.617 44.4089 366.76 43.8045 366.973 43.0934C368.182 39.1111 368.893 36.8356 369.106 36.2667C369.462 35.3422 369.64 34.8089 369.64 34.6667C373.053 25.1378 378.777 16.9956 386.813 10.24C391.435 6.32891 396.591 4.08891 402.28 3.52002C407.826 2.59558 411.524 2.13336 413.373 2.13336C416.146 2.13336 420.057 2.63113 425.106 3.62669C429.586 4.48002 435.026 5.68891 441.426 7.25336C442.991 7.68002 443.915 8.35558 444.2 9.28002C444.769 10.9867 446.191 12.3022 448.466 13.2267C448.893 13.44 449.604 14.0445 450.6 15.04Z" fill="url(#paint0_linear_122_421)"/>
<defs>
<linearGradient id="paint0_linear_122_421" x1="229.973" y1="-30.8933" x2="229.973" y2="137.107" gradientUnits="userSpaceOnUse">
<stop stop-color="#00AAFF"/>
<stop offset="0.8" stop-color="#FFC3C3"/>
</linearGradient>
</defs>
</svg>
